<svg width="234" height="315" viewBox="0 0 234 315" fill="none" xmlns="http://www.w3.org/2000/svg">
<mask id="mask0_15_54" style="mask-type:alpha" maskUnits="userSpaceOnUse" x="31" y="18" width="173" height="290">
<path d="M94.1854 21.6008C94.1854 19.3718 92.1802 17.6786 89.9842 18.0517L33.9974 27.5579C32.2665 27.8516 31 29.3514 31 31.1069V303.691C31 305.678 32.6117 307.291 34.6 307.291H90.5854C92.5744 307.291 94.1854 305.678 94.1854 303.691V201.653C94.1854 170.567 110.67 151.31 124.406 151.31C136.768 151.31 140.339 163.691 140.339 182.396V303.691C140.339 305.678 141.95 307.291 143.939 307.291H200.2C202.189 307.291 203.8 305.678 203.8 303.691V173.319C203.8 130.954 187.866 103.719 146.384 103.719C129.734 103.719 113.485 107.727 100.539 116.601C97.969 118.363 94.1854 116.628 94.1854 113.509V21.6008Z" fill="white"/>
</mask>
<g mask="url(#mask0_15_54)">
<path d="M244 0H-28V342H244V0Z" fill="url(#paint0_linear_15_54)"/>
<path d="M94.1854 21.6008C94.1854 19.3718 92.1802 17.6786 89.9842 18.0517L33.9974 27.5579C32.2665 27.8516 31 29.3514 31 31.1069V303.691C31 305.678 32.6117 307.291 34.6 307.291H90.5854C92.5744 307.291 94.1854 305.678 94.1854 303.691V201.653C94.1854 170.567 110.67 151.31 124.406 151.31C136.768 151.31 140.339 163.691 140.339 182.396V303.691C140.339 305.678 141.95 307.291 143.939 307.291H200.2C202.189 307.291 203.8 305.678 203.8 303.691V173.319C203.8 130.954 187.866 103.719 146.384 103.719C129.734 103.719 113.485 107.727 100.539 116.601C97.969 118.363 94.1854 116.628 94.1854 113.509V21.6008Z" fill="black" fill-opacity="0.01"/>
</g>
<defs>
<linearGradient id="paint0_linear_15_54" x1="-28" y1="0" x2="305.224" y2="265.02" gradientUnits="userSpaceOnUse">
<stop stop-color="#F9D01B"/>
<stop offset="1" stop-color="#0047FF"/>
</linearGradient>
</defs>
</svg>
